<svg id="Layer_1" data-name="Layer 1" xmlns="http://www.w3.org/2000/svg" viewBox="0 0 512 512"><defs><style>.cls-1,.cls-2{fill:none;}.cls-2{stroke:#414042;stroke-miterlimit:10;stroke-width:17.03px;}.cls-3{fill:#414042;}.cls-4{fill:#ef4438;}</style></defs><title>Artboard 1</title><rect class="cls-1" x="0.01" width="511.99" height="511.99"/><circle class="cls-2" cx="256" cy="256" r="247.47"/><polygon class="cls-3" points="511.87 449.21 449.08 512 387.31 387.44 511.87 449.21"/><polygon class="cls-3" points="0 62.91 62.79 0.13 124.56 124.69 0 62.91"/><polygon class="cls-3" points="62.85 511.93 0.07 449.15 124.62 387.38 62.85 511.93"/><polygon class="cls-3" points="449.15 0.06 511.94 62.85 387.38 124.62 449.15 0.06"/><path class="cls-4" d="M282,385.17H168.63q-6.81,0-9.86-3.05t-3.05-9.87v-42q0-6.81,3.05-9.87t9.86-3h96.52c3.11,0,5.44-1,7-3.05a11.76,11.76,0,0,0,2.33-7.35q0-6.1-2.33-9a9.51,9.51,0,0,0-7-3.23l-53.82-7.54q-25.12-3.58-40.37-16.5t-15.24-43.06V190q0-30.48,19.73-46.82T230,126.82H330.46q6.81,0,9.86,3.05t3.05,9.87v42.7q0,6.83-3.05,9.87t-9.86,3.05H246.85a8.76,8.76,0,0,0-7.17,3,11.71,11.71,0,0,0-2.52,7.71,12.47,12.47,0,0,0,2.52,7.9,9.5,9.5,0,0,0,7.17,3.58l53.46,7.18q25.13,3.58,40.55,16.51t15.43,43V322q0,30.5-19.91,46.82T282,385.17Z"/></svg>