<?xml version="1.0" encoding="utf-8"?>
<!-- Generator: Adobe Illustrator 23.0.6, SVG Export Plug-In . SVG Version: 6.00 Build 0)  -->
<svg version="1.1"
	 id="svg841" xmlns:cc="http://creativecommons.org/ns#" xmlns:dc="http://purl.org/dc/elements/1.1/" xmlns:inkscape="http://www.inkscape.org/namespaces/inkscape" xmlns:rdf="http://www.w3.org/1999/02/22-rdf-syntax-ns#" xmlns:sodipodi="http://sodipodi.sourceforge.net/DTD/sodipodi-0.dtd" xmlns:svg="http://www.w3.org/2000/svg"
	 xmlns="http://www.w3.org/2000/svg" xmlns:xlink="http://www.w3.org/1999/xlink" x="0px" y="0px" viewBox="0 0 1000 1000"
	 style="enable-background:new 0 0 1000 1000;" xml:space="preserve">
<style type="text/css">
	.st0{fill:#1C3144;stroke:url(#SVGID_1_);stroke-miterlimit:10;}
	.st1{fill:url(#path2127_1_);stroke:url(#path2127_2_);stroke-miterlimit:10;}
	.st2{fill:url(#path2282_1_);stroke:url(#path2282_2_);stroke-width:27;stroke-miterlimit:10;}
	.st3{fill:url(#path2833_2_);}
	.st4{fill:none;stroke:url(#SVGID_2_);stroke-width:55;stroke-miterlimit:10;}
	.st5{fill:url(#SVGID_3_);}
</style>
<linearGradient id="SVGID_1_" gradientUnits="userSpaceOnUse" x1="-920.5071" y1="500" x2="1920.5072" y2="500">
	<stop  offset="0" style="stop-color:#08FF15"/>
	<stop  offset="0.1262" style="stop-color:#1FED18"/>
	<stop  offset="0.3911" style="stop-color:#5ABE20"/>
	<stop  offset="0.7693" style="stop-color:#B8732E"/>
	<stop  offset="1" style="stop-color:#F44336"/>
</linearGradient>
<polygon class="st0" points="1919.8,494.6 494.6,1919.8 -919.8,505.4 505.4,-919.8 "/>
<sodipodi:namedview  bordercolor="#666666" borderopacity="1.0" id="base" inkscape:current-layer="layer1" inkscape:cx="483.31861" inkscape:cy="494.84291" inkscape:document-units="px" inkscape:guide-bbox="true" inkscape:pageopacity="0.0" inkscape:pageshadow="2" inkscape:snap-global="false" inkscape:snap-nodes="true" inkscape:window-height="1024" inkscape:window-maximized="1" inkscape:window-width="1920" inkscape:window-x="0" inkscape:window-y="32" inkscape:zoom="0.64" pagecolor="#ffffff" scale-x="1" showgrid="false" showguides="true" units="px">
	</sodipodi:namedview>
<linearGradient id="path2127_1_" gradientUnits="userSpaceOnUse" x1="86.6" y1="573.1" x2="285.4" y2="573.1">
	<stop  offset="0.2248" style="stop-color:#FDC60B"/>
	<stop  offset="0.4903" style="stop-color:#F28F3F"/>
	<stop  offset="0.7604" style="stop-color:#ED693C"/>
	<stop  offset="1" style="stop-color:#E83E39"/>
</linearGradient>
<linearGradient id="path2127_2_" gradientUnits="userSpaceOnUse" x1="86.1" y1="573.1" x2="285.9" y2="573.1">
	<stop  offset="0.2248" style="stop-color:#FDC60B"/>
	<stop  offset="0.4903" style="stop-color:#F28F3F"/>
	<stop  offset="0.7604" style="stop-color:#ED693C"/>
	<stop  offset="1" style="stop-color:#E83E39"/>
</linearGradient>
<path id="path2127" inkscape:connector-curvature="0" class="st1" d="M186,473.7c-54.9,0-99.4,44.5-99.4,99.4s44.5,99.4,99.4,99.4
	l0,0c54.9,0,99.4-44.5,99.4-99.4S240.9,473.7,186,473.7L186,473.7z M186,498.9l36.5,36.5h-20.2L186,519.1l-16.3,16.3h-20.2
	L186,498.9z M223.8,536.6l36.5,36.5l-36.5,36.5v-20.2l16.3-16.3l-16.3-16.3L223.8,536.6L223.8,536.6z M148.3,536.6v20.2L132,573.1
	l16.3,16.3v20.2l-36.5-36.5L148.3,536.6z M158.6,545.6h0.9l-0.9,0.9V545.6z M212.6,545.6h0.9v0.9L212.6,545.6z M158.6,599.6l0.9,0.9
	h-0.9V599.6z M213.5,599.6v0.9h-0.9L213.5,599.6z M149.6,610.8h20.2l16.3,16.3l16.3-16.3h20.2L186,647.3L149.6,610.8z"/>
<linearGradient id="path2282_1_" gradientUnits="userSpaceOnUse" x1="430.7" y1="545.25" x2="985.8" y2="545.25">
	<stop  offset="0.223" style="stop-color:#FDC60B"/>
	<stop  offset="0.4903" style="stop-color:#F28F3F"/>
	<stop  offset="0.7604" style="stop-color:#ED693C"/>
	<stop  offset="1" style="stop-color:#E83E39"/>
</linearGradient>
<linearGradient id="path2282_2_" gradientUnits="userSpaceOnUse" x1="407.9063" y1="545.25" x2="999.3" y2="545.25">
	<stop  offset="0.2248" style="stop-color:#FDC60B"/>
	<stop  offset="0.4903" style="stop-color:#F28F3F"/>
	<stop  offset="0.7604" style="stop-color:#ED693C"/>
	<stop  offset="1" style="stop-color:#E83E39"/>
</linearGradient>
<path id="path2282" inkscape:connector-curvature="0" sodipodi:insensitive="true" class="st2" d="M440.7,264.3
	c-6.3,10.4-4.3,20.8-10,31.2h358.1c70.4,0,129.3,61.2,140,145.6l30.6,241.1c0.4,3.2,0.6,6.4,0.6,9.6v39.5
	c0,35.1-23.6,63.7-52.6,63.7c-18.6,0-36-12.1-45.4-31.6l-71.2-148c-2.3-4.8-6.6-7.7-11.1-7.7H636c0.4,10.4,0.9,20.8,1.3,31.2h135
	l67.5,140.2c14,29.1,39.9,47.1,67.7,47.1c43.2,0,78.3-42.6,78.3-94.9v-39.5c0-4.8-0.3-9.7-0.9-14.4l-30.6-241
	c-12.7-99.7-82.2-172.1-165.5-172.1L440.7,264.3L440.7,264.3z"/>
<linearGradient id="path2833_2_" gradientUnits="userSpaceOnUse" x1="680.6" y1="441.65" x2="879.4" y2="441.65">
	<stop  offset="0.2248" style="stop-color:#FDC60B"/>
	<stop  offset="0.4903" style="stop-color:#F28F3F"/>
	<stop  offset="0.7604" style="stop-color:#ED693C"/>
	<stop  offset="1" style="stop-color:#E83E39"/>
</linearGradient>
<path id="path2833_1_" inkscape:connector-curvature="0" sodipodi:insensitive="true" class="st3" d="M713.9,406.8
	c-18.4,0-33.3,14.9-33.3,33.3s14.9,33.3,33.3,33.3c18.4,0,33.3-14.9,33.3-33.3S732.3,406.8,713.9,406.8z M778.6,473.7
	c-18.4,0-33.3,14.9-33.3,33.3c0,18.4,14.9,33.3,33.3,33.3c18.4,0,33.3-14.9,33.3-33.3S797,473.7,778.6,473.7L778.6,473.7z
	 M781.4,343c-18.4,0-33.3,14.9-33.3,33.3s14.9,33.3,33.3,33.3c18.4,0,33.3-14.9,33.3-33.3S799.7,343,781.4,343z M846.1,409.9
	c-18.4,0-33.3,14.9-33.3,33.3s14.9,33.3,33.3,33.3c18.4,0,33.3-14.9,33.3-33.3C879.4,424.8,864.4,409.9,846.1,409.9z"/>
<linearGradient id="SVGID_2_" gradientUnits="userSpaceOnUse" x1="1.1" y1="500.05" x2="534.3555" y2="500.05">
	<stop  offset="0" style="stop-color:#FCC30E"/>
	<stop  offset="3.253917e-03" style="stop-color:#FDC50C"/>
	<stop  offset="3.576710e-03" style="stop-color:#FDC60B"/>
	<stop  offset="1.019746e-02" style="stop-color:#FDC40D"/>
	<stop  offset="0.1008" style="stop-color:#F7A728"/>
	<stop  offset="0.1795" style="stop-color:#F39539"/>
	<stop  offset="0.237" style="stop-color:#F28F3F"/>
	<stop  offset="0.6191" style="stop-color:#ED693C"/>
	<stop  offset="1" style="stop-color:#E83E39"/>
</linearGradient>
<path class="st4" d="M482.9,723.5H126.2c-53.9,0-97.6-43.7-97.6-97.6V374.2c0-53.9,43.7-97.6,97.6-97.6h356.7
	C482.9,276.5,536.8,723.5,482.9,723.5z"/>
<g id="path2277" inkscape:connector-curvature="0" sodipodi:nodetypes="caacaac">
	<linearGradient id="SVGID_3_" gradientUnits="userSpaceOnUse" x1="218.7" y1="500.0289" x2="781.4" y2="500.0289">
		<stop  offset="0" style="stop-color:#FFC107"/>
		<stop  offset="0.2197" style="stop-color:#FDAA10"/>
		<stop  offset="0.6772" style="stop-color:#F87025"/>
		<stop  offset="1" style="stop-color:#F44336"/>
	</linearGradient>
	<path class="st5" d="M781.4,1c-0.7-0.9-18.9,9.4-45.8,20c-27.1,11.3-62.9,22.8-103.3,39.8c-40.3,17.1-85.2,39.6-127.2,73.6
		c-41.5,33.4-79.9,78.2-96.1,125.8c-25.2,65.8-4.5,147.4,19.5,232.7c23.7,84.8,50.7,173.2,31.9,240.5c-10,39.9-34.3,79.2-60.4,111
		c-26.5,32.2-54.7,57-80.7,77.7c-26,20.7-49.8,37.2-68.5,51.7c-18.5,14-32,25.9-32.1,25.2c0.8,1.2,20.7-7.4,50.8-15.4
		c30.2-8.7,70.6-17,116-30.5c45.3-13.5,95.5-32.3,142-63.1c46-30.3,88.1-72.6,106.5-120.3c26.8-63,12-138.3-8.8-221.4
		c-20.4-82.1-46.8-172-32.9-242.1c7.3-40.3,25.9-82.7,46-118.7c20.3-36.4,42.1-66.4,62.4-92c20.1-25.4,39-46.5,54.3-64.1
		C770,14.2,781.4,0.4,781.4,1L781.4,1z"/>
</g>
</svg>
