<?xml version="1.0" encoding="utf-8"?>
<!-- Generator: Adobe Illustrator 23.0.6, SVG Export Plug-In . SVG Version: 6.00 Build 0)  -->
<svg version="1.1" id="Layer_1" xmlns="http://www.w3.org/2000/svg" xmlns:xlink="http://www.w3.org/1999/xlink" x="0px" y="0px"
	 viewBox="0 0 512 512" style="enable-background:new 0 0 512 512;" xml:space="preserve">
<style type="text/css">
	.st0{fill:#0B3954;}
	.st1{fill:#0B3954;stroke:#0B3954;stroke-width:13.8275;stroke-miterlimit:10;}
	.st2{fill:none;stroke:#0B3954;stroke-width:28.1671;stroke-miterlimit:10;}
</style>
<path id="path2277" class="st0" d="M399.36,0c0,0-153.65,68.75-182.69,153.72c-20.17,59.01,37.92,138.47,22.07,199.91
	C220.08,425.98,111.3,511.38,111.3,511.38s168.5-51.73,202.46-137.85c22.55-57.17-32.55-136.68-19.72-199.29
	C308.79,102.23,399.36,0,399.36,0L399.36,0z"/>
<path id="path2127" class="st0" d="M94.63,242.21c-28.1,0-50.88,22.8-50.88,50.93c0,28.13,22.78,50.93,50.88,50.93c0,0,0,0,0,0
	c28.1,0,50.88-22.8,50.88-50.93C145.5,265.02,122.73,242.21,94.63,242.21L94.63,242.21z M94.63,255.13l18.66,18.68h-10.33
	l-8.33-8.34l-8.33,8.34H75.97L94.63,255.13z M113.94,274.46l18.66,18.68l-18.66,18.68v-10.34l8.33-8.34l-8.33-8.34V274.46z
	 M75.31,274.46v10.34l-8.33,8.34l8.33,8.34v10.34l-18.66-18.68L75.31,274.46z M80.57,279.06h0.48l-0.48,0.48V279.06z M108.21,279.06
	h0.48v0.48L108.21,279.06z M80.57,306.74l0.48,0.48h-0.48V306.74z M108.69,306.74v0.48h-0.48L108.69,306.74z M75.97,312.47H86.3
	l8.33,8.34l8.33-8.34h10.33l-18.66,18.68L75.97,312.47z"/>
<path id="path2282" class="st1" d="M276.81,134.93c-3.24,5.33-2.22,10.67-5.1,16h131.46c36.05,0,66.19,31.38,71.67,74.61
	l15.66,123.52c0.21,1.64,0.32,3.29,0.32,4.94v20.24c0,18-12.07,32.64-26.9,32.64c-9.53,0-18.44-6.21-23.25-16.2l-36.44-75.82
	c-1.18-2.46-3.35-3.97-5.7-3.97H295.47c0.22,5.33,0.44,10.67,0.67,16h98.6l34.55,71.85c7.16,14.89,20.43,24.14,34.63,24.14
	c22.11,0,40.09-21.82,40.09-48.64V354c0-2.48-0.15-4.96-0.47-7.4l-15.66-123.5c-6.48-51.09-42.1-88.17-84.7-88.17H276.81z"/>
<path id="path2833_1_" class="st0" d="M364.83,207.93c-9.4,0-17.05,7.66-17.05,17.07c0,9.41,7.65,17.07,17.05,17.07
	c9.4,0,17.05-7.66,17.05-17.07S374.23,207.93,364.83,207.93z M397.94,242.21c-9.4,0-17.05,7.66-17.05,17.07
	c0,9.41,7.65,17.07,17.05,17.07c9.4,0,17.05-7.66,17.05-17.07C414.99,249.87,407.34,242.21,397.94,242.21L397.94,242.21z
	 M399.36,175.22c-9.4,0-17.05,7.66-17.05,17.07c0,9.41,7.65,17.07,17.05,17.07c9.4,0,17.05-7.66,17.05-17.07
	S408.76,175.22,399.36,175.22z M432.48,209.51c-9.4,0-17.05,7.66-17.05,17.07s7.65,17.07,17.05,17.07s17.05-7.66,17.05-17.07
	C449.53,217.17,441.88,209.51,432.48,209.51z"/>
<path class="st2" d="M246.56,370.19H63.98c-27.6,0-49.98-22.4-49.98-50.03V191.22c0-27.63,22.38-50.03,49.98-50.03h182.57
	C246.56,141.19,274.16,370.19,246.56,370.19z"/>
</svg>
